<svg version="1" xmlns="http://www.w3.org/2000/svg" width="682.667" height="682.667" viewBox="0 0 512.000000 512.000000"><path d="M169.5 1C126 4.7 85.8 23.4 54.6 54.6 21.4 87.8 3.4 128.9.5 177.5c-1 17.3 1.9 30.7 9.6 43.7 10 17 27.2 29.3 45.9 32.8 9.5 1.8 10.1 2.2 4.3 3-16.7 2.4-34.6 12.7-44.7 25.9-14.6 18.9-18 37.7-13 71.6 11.8 79.6 75.3 143.1 154.9 154.9 33.9 5 52.7 1.6 71.6-13 13.2-10.1 23.5-28 25.9-44.7.8-5.8 1.2-5.2 3 4.3 3.5 18.7 15.8 35.9 32.8 45.9 13 7.7 26.4 10.6 43.7 9.6 48.6-2.9 89.7-20.9 122.9-54.1s51.2-74.3 54.1-122.9c1-17.3-1.9-30.7-9.6-43.7-10-17-27.2-29.3-45.9-32.8-9.5-1.8-10.1-2.2-4.3-3 16.7-2.4 34.6-12.7 44.7-25.9 14.6-18.9 18-37.7 13-71.6C497.6 77.9 434.1 14.4 354.5 2.6c-33.9-5-52.7-1.6-71.6 13-13.2 10.1-23.5 28-25.9 44.7-.8 5.8-1.2 5.2-3-4.3-5.2-28-28.7-50.2-58.1-54.9C188.8-.1 183-.1 169.5 1zm104.6 151c3.6.5 10 2.1 14.2 3.5 8.9 2.9 23.7 10.1 23.7 11.5 0 .5-4.1 6.3-9.2 13-7.4 9.7-9.7 12-11.8 12-1.4.1-4.2.7-6.2 1.4-3.6 1.3-3.7 1.3-4.9-1.7-3-7.2-10.3-12.9-18.7-14.8l-5.2-1.1v-25.9l5.8.6c3.1.3 8.7 1 12.3 1.5zm58.2 34c-1 .9-5.7 4.7-10.4 8.3-6.5 5-8.9 6.3-9.7 5.4-.7-.8 1.4-4.2 7.1-11.5l8-10.3 3.3 3.2c3.2 3.1 3.3 3.4 1.7 4.9zm17.7 22c6.8 13.5 9.4 23.2 11.5 42.2l.6 5.8h-25.9l-1.1-5.2c-1.9-8.5-7.6-15.7-14.9-18.7-1.9-.8-2.9-1.8-2.5-2.5.4-.6 1.2-3.5 1.8-6.3 1-5.2 1.3-5.4 12.5-14.2 6.3-4.9 12.1-9 12.7-9 .7-.1 3.1 3.5 5.3 7.9zm-173.1 53.2c1.9 8.4 7.6 15.7 14.8 18.7 3 1.2 3 1.3 1.7 4.9-.7 2-1.3 4.8-1.4 6.2 0 2.1-2.3 4.4-12 11.8-6.7 5.1-12.5 9.2-13 9.2-1.4 0-8.6-14.8-11.5-23.7-2.4-7.3-3.6-13.7-5-26.6l-.6-5.7h25.9l1.1 5.2zm17.4 60.7c-10.3 13.4-9.3 12.7-13.2 8.7l-3.2-3.3 10.3-8c7.3-5.7 10.7-7.8 11.5-7.1.9.8-.4 3.2-5.4 9.7zm44.2 6.9c4 3.6 8.1 5.5 13.8 6.6l3.7.7v26l-5.7-.6c-12.9-1.4-19.3-2.6-26.6-5-8.9-2.9-23.7-10.1-23.7-11.5 0-.5 4.1-6.3 9.2-13 7.4-9.6 9.7-12 11.8-12.1 1.4 0 4.1-.6 6-1.2 3.5-1.3 3.5-1.3 5.7 2.9 1.2 2.2 3.8 5.5 5.8 7.2z"/></svg>